<svg xmlns="http://www.w3.org/2000/svg" xmlns:xlink="http://www.w3.org/1999/xlink" width="500" zoomAndPan="magnify" viewBox="0 0 375 374.999991" height="500" preserveAspectRatio="xMidYMid meet" version="1.0"><defs><g/><clipPath id="b634257a39"><path d="M 42.734375 157.152344 L 109.484375 157.152344 L 109.484375 217.902344 L 42.734375 217.902344 Z M 42.734375 157.152344 " clip-rule="nonzero"/></clipPath></defs><g clip-path="url(#b634257a39)"><path fill="#32e0c4" d="M 102.644531 164.210938 C 100.929688 164.210938 99.316406 164.875 98.113281 166.078125 L 96.246094 167.945312 C 90.453125 161.0625 82.066406 157.128906 73.035156 157.128906 C 56.324219 157.128906 42.734375 170.722656 42.734375 187.441406 C 42.734375 204.164062 56.324219 217.757812 73.035156 217.757812 C 89.746094 217.757812 103.351562 204.164062 103.351562 187.441406 C 103.351562 184.898438 103.019531 182.371094 102.390625 179.925781 L 107.175781 175.140625 C 109.660156 172.644531 109.660156 168.578125 107.175781 166.078125 C 105.957031 164.875 104.355469 164.210938 102.644531 164.210938 Z M 73.035156 215.546875 C 57.542969 215.546875 44.941406 202.9375 44.941406 187.441406 C 44.941406 171.949219 57.542969 159.335938 73.035156 159.335938 C 81.46875 159.335938 89.304688 163.027344 94.6875 169.503906 L 77.554688 186.625 L 71.046875 180.125 C 68.558594 177.628906 64.503906 177.640625 62.007812 180.125 C 60.78125 181.351562 60.105469 182.976562 60.117188 184.691406 C 60.117188 186.390625 60.789062 187.984375 62.007812 189.175781 L 73.035156 200.230469 C 74.261719 201.433594 75.867188 202.109375 77.554688 202.109375 C 79.234375 202.109375 80.847656 201.445312 82.109375 200.21875 L 100.566406 181.761719 C 100.941406 183.628906 101.140625 185.53125 101.140625 187.441406 C 101.140625 202.9375 88.53125 215.546875 73.035156 215.546875 Z M 73.035156 215.546875 " fill-opacity="1" fill-rule="nonzero"/></g><g fill="#ffffff" fill-opacity="1"><g transform="translate(116.540973, 205.896331)"><g><path d="M 39.578125 -32.734375 L 38.40625 -32.734375 C 37.832031 -37.335938 35.34375 -39.640625 30.9375 -39.640625 L 23.859375 -39.640625 L 23.859375 -5.796875 C 23.859375 -3.941406 24.390625 -2.695312 25.453125 -2.0625 C 26.523438 -1.425781 28.046875 -1.109375 30.015625 -1.109375 L 30.015625 0 L 11.03125 0 L 11.03125 -1.109375 C 13.207031 -1.109375 14.78125 -1.476562 15.75 -2.21875 C 16.71875 -2.957031 17.203125 -4.289062 17.203125 -6.21875 L 17.203125 -39.640625 L 9.671875 -39.640625 C 7.742188 -39.640625 6.128906 -39.070312 4.828125 -37.9375 C 3.535156 -36.8125 2.8125 -35.078125 2.65625 -32.734375 L 1.546875 -32.734375 L 1.84375 -42.34375 L 39.265625 -42.34375 Z M 39.578125 -32.734375 "/></g></g></g><g fill="#ffffff" fill-opacity="1"><g transform="translate(157.653723, 205.896331)"><g><path d="M 7.09375 -8.203125 L 22.875 -44.203125 L 23.984375 -44.203125 L 40.625 -5.859375 C 41.238281 -4.460938 41.820312 -3.421875 42.375 -2.734375 C 42.925781 -2.054688 43.507812 -1.613281 44.125 -1.40625 C 44.75 -1.207031 45.59375 -1.109375 46.65625 -1.109375 L 46.65625 0 L 29.28125 0 L 29.28125 -1.109375 C 30.757812 -1.109375 31.867188 -1.375 32.609375 -1.90625 C 33.347656 -2.445312 33.71875 -3.164062 33.71875 -4.0625 C 33.71875 -4.84375 33.453125 -5.8125 32.921875 -6.96875 L 29.703125 -14.234375 L 12.640625 -14.234375 L 9.125 -6.171875 C 8.707031 -5.347656 8.5 -4.601562 8.5 -3.9375 C 8.5 -2.050781 10.019531 -1.109375 13.0625 -1.109375 L 13.0625 0 L 0.859375 0 L 0.859375 -1.109375 C 1.890625 -1.234375 2.722656 -1.53125 3.359375 -2 C 3.992188 -2.476562 4.566406 -3.164062 5.078125 -4.0625 C 5.597656 -4.96875 6.269531 -6.347656 7.09375 -8.203125 Z M 28.71875 -16.578125 L 21.203125 -33.78125 L 13.6875 -16.578125 Z M 28.71875 -16.578125 "/></g></g></g><g fill="#ffffff" fill-opacity="1"><g transform="translate(205.176865, 205.896331)"><g><path d="M 15.53125 -43.265625 C 16.925781 -43.265625 18.140625 -43.128906 19.171875 -42.859375 C 20.203125 -42.597656 21.25 -42.242188 22.3125 -41.796875 C 22.84375 -41.585938 23.363281 -41.398438 23.875 -41.234375 C 24.394531 -41.066406 24.859375 -40.984375 25.265625 -40.984375 C 26.253906 -40.984375 27.035156 -41.742188 27.609375 -43.265625 L 28.78125 -43.265625 L 28.78125 -29.21875 L 27.609375 -29.21875 C 27.410156 -31.394531 26.765625 -33.375 25.671875 -35.15625 C 24.585938 -36.945312 23.234375 -38.351562 21.609375 -39.375 C 19.984375 -40.40625 18.242188 -40.921875 16.390625 -40.921875 C 14.378906 -40.921875 12.65625 -40.316406 11.21875 -39.109375 C 9.78125 -37.898438 9.0625 -36.429688 9.0625 -34.703125 C 9.0625 -32.691406 10.046875 -30.945312 12.015625 -29.46875 C 13.410156 -28.4375 15.363281 -27.203125 17.875 -25.765625 C 20.09375 -24.410156 21.941406 -23.238281 23.421875 -22.25 C 24.898438 -21.257812 26.273438 -20.191406 27.546875 -19.046875 C 28.703125 -17.929688 29.617188 -16.65625 30.296875 -15.21875 C 30.972656 -13.78125 31.3125 -12.300781 31.3125 -10.78125 C 31.3125 -8.6875 30.734375 -6.734375 29.578125 -4.921875 C 28.429688 -3.117188 26.859375 -1.691406 24.859375 -0.640625 C 22.867188 0.398438 20.6875 0.921875 18.3125 0.921875 C 16.789062 0.921875 15.441406 0.785156 14.265625 0.515625 C 13.097656 0.253906 11.878906 -0.101562 10.609375 -0.5625 C 9.203125 -1.050781 8.148438 -1.296875 7.453125 -1.296875 C 6.347656 -1.296875 5.507812 -0.554688 4.9375 0.921875 L 3.828125 0.921875 L 3.828125 -13.3125 L 4.9375 -13.3125 C 5.632812 -9.65625 7.019531 -6.757812 9.09375 -4.625 C 11.164062 -2.488281 13.847656 -1.421875 17.140625 -1.421875 C 19.484375 -1.421875 21.414062 -2.054688 22.9375 -3.328125 C 24.457031 -4.597656 25.21875 -6.203125 25.21875 -8.140625 C 25.21875 -9.117188 25.03125 -10.019531 24.65625 -10.84375 C 24.28125 -11.664062 23.664062 -12.550781 22.8125 -13.5 C 22.03125 -14.320312 20.921875 -15.210938 19.484375 -16.171875 C 18.046875 -17.140625 16.132812 -18.34375 13.75 -19.78125 C 11.726562 -21.019531 10.179688 -22 9.109375 -22.71875 C 8.046875 -23.4375 7.25 -24.0625 6.71875 -24.59375 C 4.625 -26.726562 3.578125 -29.296875 3.578125 -32.296875 C 3.578125 -34.347656 4.097656 -36.207031 5.140625 -37.875 C 6.191406 -39.539062 7.617188 -40.851562 9.421875 -41.8125 C 11.234375 -42.78125 13.269531 -43.265625 15.53125 -43.265625 Z M 15.53125 -43.265625 "/></g></g></g><g fill="#ffffff" fill-opacity="1"><g transform="translate(239.201218, 205.896331)"><g><path d="M 21.828125 -41.234375 C 19.566406 -41.234375 17.941406 -40.90625 16.953125 -40.25 C 15.960938 -39.59375 15.46875 -38.21875 15.46875 -36.125 L 15.46875 -21.765625 C 19.414062 -25.003906 23.15625 -28.328125 26.6875 -31.734375 C 30.21875 -35.148438 31.984375 -37.679688 31.984375 -39.328125 C 31.984375 -40.023438 31.664062 -40.503906 31.03125 -40.765625 C 30.394531 -41.035156 29.460938 -41.191406 28.234375 -41.234375 L 28.234375 -42.34375 L 43.765625 -42.34375 L 43.765625 -41.234375 L 43.265625 -41.234375 C 42.035156 -41.148438 40.863281 -40.84375 39.75 -40.3125 C 38.644531 -39.78125 37.519531 -38.976562 36.375 -37.90625 C 35.707031 -37.289062 34.554688 -36.117188 32.921875 -34.390625 C 30.859375 -32.296875 29.046875 -30.476562 27.484375 -28.9375 C 25.929688 -27.394531 24.046875 -25.660156 21.828125 -23.734375 L 37.65625 -8.078125 C 39.71875 -6.054688 41.382812 -4.5625 42.65625 -3.59375 C 43.925781 -2.632812 45.125 -1.976562 46.25 -1.625 C 47.382812 -1.28125 48.773438 -1.109375 50.421875 -1.109375 L 50.421875 0 L 28.59375 0 L 28.59375 -1.109375 C 29.707031 -1.109375 30.601562 -1.28125 31.28125 -1.625 C 31.957031 -1.976562 32.296875 -2.523438 32.296875 -3.265625 C 32.296875 -3.753906 32.160156 -4.179688 31.890625 -4.546875 C 31.628906 -4.921875 31.109375 -5.5 30.328125 -6.28125 L 15.46875 -20.953125 L 15.46875 -6.171875 C 15.46875 -4.316406 15.929688 -3.019531 16.859375 -2.28125 C 17.785156 -1.539062 19.335938 -1.148438 21.515625 -1.109375 L 21.515625 0 L 2.46875 0 L 2.46875 -1.109375 C 4.851562 -1.148438 6.503906 -1.519531 7.421875 -2.21875 C 8.347656 -2.914062 8.8125 -4.269531 8.8125 -6.28125 L 8.8125 -36.125 C 8.8125 -38.132812 8.304688 -39.488281 7.296875 -40.1875 C 6.296875 -40.882812 4.6875 -41.234375 2.46875 -41.234375 L 2.46875 -42.34375 L 21.828125 -42.34375 Z M 21.828125 -41.234375 "/></g></g></g><g fill="#ffffff" fill-opacity="1"><g transform="translate(289.929534, 205.896331)"><g><path d="M 19.546875 -41.234375 C 17.691406 -41.234375 16.425781 -41.085938 15.75 -40.796875 C 15.070312 -40.515625 14.734375 -40.023438 14.734375 -39.328125 C 14.734375 -38.503906 15.328125 -37.164062 16.515625 -35.3125 L 26.015625 -21.015625 L 33.65625 -32.984375 C 35.832031 -36.347656 36.921875 -38.503906 36.921875 -39.453125 C 36.921875 -40.148438 36.5625 -40.617188 35.84375 -40.859375 C 35.125 -41.109375 34.003906 -41.234375 32.484375 -41.234375 L 32.484375 -42.34375 L 46.78125 -42.34375 L 46.78125 -41.234375 C 44.726562 -41.234375 43.015625 -40.644531 41.640625 -39.46875 C 40.265625 -38.300781 38.609375 -36.175781 36.671875 -33.09375 L 27.1875 -18.1875 L 27.1875 -6.171875 C 27.1875 -4.722656 27.421875 -3.648438 27.890625 -2.953125 C 28.359375 -2.253906 29.035156 -1.78125 29.921875 -1.53125 C 30.804688 -1.289062 32.050781 -1.148438 33.65625 -1.109375 L 33.65625 0 L 14 0 L 14 -1.109375 L 14.546875 -1.109375 C 16.765625 -1.109375 18.316406 -1.5 19.203125 -2.28125 C 20.085938 -3.0625 20.53125 -4.5625 20.53125 -6.78125 L 20.53125 -17.75 L 7.578125 -36.984375 C 6.710938 -38.253906 5.992188 -39.175781 5.421875 -39.75 C 4.847656 -40.332031 4.222656 -40.722656 3.546875 -40.921875 C 2.867188 -41.128906 1.929688 -41.234375 0.734375 -41.234375 L 0.734375 -42.34375 L 19.546875 -42.34375 Z M 19.546875 -41.234375 "/></g></g></g></svg>